<?xml version="1.0" encoding="utf-8"?>
<!-- Generator: Adobe Illustrator 25.4.1, SVG Export Plug-In . SVG Version: 6.00 Build 0)  -->
<svg version="1.1" id="Layer_1" xmlns="http://www.w3.org/2000/svg" xmlns:xlink="http://www.w3.org/1999/xlink" x="0px" y="0px"
	 viewBox="0 0 24 19" style="enable-background:new 0 0 24 19;" xml:space="preserve">
<style type="text/css">
	.st0{clip-path:url(#SVGID_00000007408805935650476570000008122170729101159609_);}
	.st1{fill-rule:evenodd;clip-rule:evenodd;fill:#BD3D44;}
	.st2{fill-rule:evenodd;clip-rule:evenodd;fill:#FFFFFF;}
	.st3{fill-rule:evenodd;clip-rule:evenodd;fill:#192F5D;}
</style>
<desc>The United States of America flag, produced by Daniel McRae</desc>
<g>
	<defs>
		<rect id="SVGID_1_" x="0" y="0" width="24" height="19"/>
	</defs>
	<clipPath id="SVGID_00000057126901254950195590000005379293086723829408_">
		<use xlink:href="#SVGID_1_"  style="overflow:visible;"/>
	</clipPath>
	<g transform="scale(.9375)" style="clip-path:url(#SVGID_00000057126901254950195590000005379293086723829408_);">
		<g>
			<path class="st1" d="M0,0h36.5v1.6H0V0z M0,3.1h36.5v1.6H0V3.1z M0,6.2h36.5v1.6H0V6.2z M0,9.4h36.5v1.6H0V9.4z M0,12.5h36.5V14
				H0V12.5z M0,15.6h36.5v1.6H0V15.6z M0,18.7h36.5v1.6H0V18.7z"/>
			<path class="st2" d="M0,1.6h36.5v1.6H0V1.6z M0,4.7h36.5v1.6H0V4.7z M0,7.8h36.5v1.6H0V7.8z M0,10.9h36.5v1.6H0V10.9z M0,14h36.5
				v1.6H0V14z M0,17.1h36.5v1.6H0V17.1z"/>
		</g>
		<path class="st3" d="M0,0h14.6v10.9H0V0z"/>
		<path class="st2" d="M1.2,0.5l0.1,0.4h0.4L1.4,1.2l0.1,0.4L1.2,1.3L0.9,1.6L1,1.2L0.7,0.9h0.4L1.2,0.5z M3.6,0.5l0.1,0.4h0.4
			L3.9,1.2L4,1.6L3.6,1.3L3.3,1.6l0.1-0.4L3.1,0.9h0.4L3.6,0.5z M6.1,0.5l0.1,0.4h0.4L6.3,1.2l0.1,0.4L6.1,1.3L5.7,1.6l0.1-0.4
			L5.5,0.9h0.4L6.1,0.5z M8.5,0.5l0.1,0.4h0.4L8.7,1.2l0.1,0.4L8.5,1.3L8.2,1.6l0.1-0.4L8,0.9h0.4L8.5,0.5z M10.9,0.5l0.1,0.4h0.4
			l-0.3,0.3l0.1,0.4l-0.3-0.3l-0.3,0.3l0.1-0.4l-0.3-0.3h0.4L10.9,0.5z M13.4,0.5l0.1,0.4h0.4l-0.3,0.3l0.1,0.4l-0.3-0.3L13,1.6
			l0.1-0.4l-0.3-0.3h0.4L13.4,0.5z M2.4,1.6L2.6,2H3L2.6,2.3l0.1,0.4L2.4,2.4L2.1,2.7l0.1-0.4L1.9,2h0.4L2.4,1.6z M4.9,1.6L5,2h0.4
			L5.1,2.3l0.1,0.4L4.9,2.4L4.5,2.7l0.1-0.4L4.3,2h0.4L4.9,1.6z M7.3,1.6L7.4,2h0.4L7.5,2.3l0.1,0.4L7.3,2.4L7,2.7l0.1-0.4L6.7,2
			h0.4L7.3,1.6z M9.7,1.6L9.9,2h0.4L9.9,2.3l0.1,0.4L9.7,2.4L9.4,2.7l0.1-0.4L9.2,2h0.4L9.7,1.6z M12.2,1.6L12.3,2h0.4l-0.3,0.3
			l0.1,0.4l-0.3-0.3l-0.3,0.3l0.1-0.4L11.6,2H12L12.2,1.6z M1.2,2.6l0.1,0.4h0.4L1.4,3.3l0.1,0.4L1.2,3.5L0.9,3.8L1,3.3L0.7,3.1h0.4
			L1.2,2.6z M3.6,2.6l0.1,0.4h0.4L3.9,3.3L4,3.8L3.6,3.5L3.3,3.8l0.1-0.4L3.1,3.1h0.4L3.6,2.6z M6.1,2.6l0.1,0.4h0.4L6.3,3.3
			l0.1,0.4L6.1,3.5L5.7,3.8l0.1-0.4L5.5,3.1h0.4L6.1,2.6z M8.5,2.6l0.1,0.4h0.4L8.7,3.3l0.1,0.4L8.5,3.5L8.2,3.8l0.1-0.4L8,3.1h0.4
			L8.5,2.6z M10.9,2.6l0.1,0.4h0.4l-0.3,0.3l0.1,0.4l-0.3-0.3l-0.3,0.3l0.1-0.4l-0.3-0.3h0.4L10.9,2.6z M13.4,2.6l0.1,0.4h0.4
			l-0.3,0.3l0.1,0.4l-0.3-0.3L13,3.8l0.1-0.4l-0.3-0.3h0.4L13.4,2.6z M2.4,3.7l0.1,0.4H3L2.6,4.4l0.1,0.4L2.4,4.6L2.1,4.9l0.1-0.4
			L1.9,4.2h0.4L2.4,3.7z M4.9,3.7L5,4.2h0.4L5.1,4.4l0.1,0.4L4.9,4.6L4.5,4.9l0.1-0.4L4.3,4.2h0.4L4.9,3.7z M7.3,3.7l0.1,0.4h0.4
			L7.5,4.4l0.1,0.4L7.3,4.6L7,4.9l0.1-0.4L6.7,4.2h0.4L7.3,3.7z M9.7,3.7l0.1,0.4h0.4L9.9,4.4l0.1,0.4L9.7,4.6L9.4,4.9l0.1-0.4
			L9.2,4.2h0.4L9.7,3.7z M12.2,3.7l0.1,0.4h0.4l-0.3,0.3l0.1,0.4l-0.3-0.3l-0.3,0.3l0.1-0.4l-0.3-0.3H12L12.2,3.7z M1.2,4.8l0.1,0.4
			h0.4L1.4,5.5L1.6,6L1.2,5.7L0.9,6L1,5.5L0.7,5.3h0.4L1.2,4.8z M3.6,4.8l0.1,0.4h0.4L3.9,5.5L4,6L3.6,5.7L3.3,6l0.1-0.4L3.1,5.3
			h0.4L3.6,4.8z M6.1,4.8l0.1,0.4h0.4L6.3,5.5L6.4,6L6.1,5.7L5.7,6l0.1-0.4L5.5,5.3h0.4L6.1,4.8z M8.5,4.8l0.1,0.4h0.4L8.7,5.5
			L8.9,6L8.5,5.7L8.2,6l0.1-0.4L8,5.3h0.4L8.5,4.8z M10.9,4.8l0.1,0.4h0.4l-0.3,0.3L11.3,6l-0.3-0.3L10.6,6l0.1-0.4l-0.3-0.3h0.4
			L10.9,4.8z M13.4,4.8l0.1,0.4h0.4l-0.3,0.3L13.7,6l-0.3-0.3L13,6l0.1-0.4l-0.3-0.3h0.4L13.4,4.8z M2.4,5.9l0.1,0.4H3L2.6,6.6
			l0.1,0.4L2.4,6.8L2.1,7.1l0.1-0.4L1.9,6.4h0.4L2.4,5.9z M4.9,5.9L5,6.4h0.4L5.1,6.6l0.1,0.4L4.9,6.8L4.5,7.1l0.1-0.4L4.3,6.4h0.4
			L4.9,5.9z M7.3,5.9l0.1,0.4h0.4L7.5,6.6l0.1,0.4L7.3,6.8L6.9,7.1l0.1-0.4L6.7,6.4h0.4L7.3,5.9z M9.7,5.9l0.1,0.4h0.4L9.9,6.6
			l0.1,0.4L9.7,6.8L9.4,7.1l0.1-0.4L9.2,6.4h0.4L9.7,5.9z M12.2,5.9l0.1,0.4h0.4l-0.3,0.3l0.1,0.4l-0.3-0.3l-0.3,0.3l0.1-0.4
			l-0.3-0.3H12L12.2,5.9z M1.2,7l0.1,0.4h0.4L1.4,7.7l0.1,0.4L1.2,7.9L0.9,8.1L1,7.7L0.7,7.4h0.4L1.2,7z M3.6,7l0.1,0.4h0.4L3.9,7.7
			L4,8.1L3.6,7.9L3.3,8.1l0.1-0.4L3.1,7.4h0.4L3.6,7z M6.1,7l0.1,0.4h0.4L6.3,7.7l0.1,0.4L6.1,7.9L5.7,8.1l0.1-0.4L5.5,7.4h0.4
			L6.1,7z M8.5,7l0.1,0.4h0.4L8.7,7.7l0.1,0.4L8.5,7.9L8.2,8.1l0.1-0.4L8,7.4h0.4L8.5,7z M10.9,7l0.1,0.4h0.4l-0.3,0.3l0.1,0.4
			l-0.3-0.3l-0.3,0.3l0.1-0.4l-0.3-0.3h0.4L10.9,7z M13.4,7l0.1,0.4h0.4l-0.3,0.3l0.1,0.4l-0.3-0.3L13,8.1l0.1-0.4l-0.3-0.3h0.4
			L13.4,7z M2.4,8.1l0.1,0.4H3L2.6,8.8l0.1,0.4L2.4,9L2.1,9.2l0.1-0.4L1.9,8.5h0.4L2.4,8.1z M4.9,8.1L5,8.5h0.4L5.1,8.8l0.1,0.4
			L4.9,9L4.5,9.2l0.1-0.4L4.3,8.5h0.4L4.9,8.1z M7.3,8.1l0.1,0.4h0.4L7.5,8.8l0.1,0.4L7.3,9L7,9.2l0.1-0.4L6.7,8.5h0.4L7.3,8.1z
			 M9.7,8.1l0.1,0.4h0.4L9.9,8.8l0.1,0.4L9.7,9L9.4,9.2l0.1-0.4L9.2,8.5h0.4L9.7,8.1z M12.2,8.1l0.1,0.4h0.4l-0.3,0.3l0.1,0.4
			L12.2,9l-0.3,0.3l0.1-0.4l-0.3-0.3H12L12.2,8.1z M1.2,9.2l0.1,0.4h0.4L1.4,9.9l0.1,0.4l-0.3-0.3l-0.3,0.3L1,9.9L0.7,9.6h0.4
			L1.2,9.2z M3.6,9.2l0.1,0.4h0.4L3.9,9.9L4,10.3l-0.3-0.3l-0.3,0.3l0.1-0.4L3.1,9.6h0.4L3.6,9.2z M6.1,9.2l0.1,0.4h0.4L6.3,9.9
			l0.1,0.4l-0.3-0.3l-0.3,0.3l0.1-0.4L5.5,9.6h0.4L6.1,9.2z M8.5,9.2l0.1,0.4h0.4L8.7,9.9l0.1,0.4l-0.3-0.3l-0.3,0.3l0.1-0.4L8,9.6
			h0.4L8.5,9.2z M10.9,9.2l0.1,0.4h0.4l-0.3,0.3l0.1,0.4l-0.3-0.3l-0.3,0.3l0.1-0.4l-0.3-0.3h0.4L10.9,9.2z M13.4,9.2l0.1,0.4h0.4
			l-0.3,0.3l0.1,0.4l-0.3-0.3L13,10.3l0.1-0.4l-0.3-0.3h0.4L13.4,9.2z"/>
	</g>
</g>
</svg>
